<svg xmlns="http://www.w3.org/2000/svg" viewBox="0 0 430 120" fill="none" role="img" aria-label="ReleasePilot">
  <defs>
    <linearGradient id="bg" x1="0%" y1="0%" x2="100%" y2="100%">
      <stop offset="0%" stop-color="#312e81"/>
      <stop offset="100%" stop-color="#4338ca"/>
    </linearGradient>
    <linearGradient id="flame" x1="0%" y1="0%" x2="0%" y2="100%">
      <stop offset="0%" stop-color="#fbbf24"/>
      <stop offset="100%" stop-color="#f97316"/>
    </linearGradient>
  </defs>
  <g transform="translate(16, 0)">
  <!-- Icon badge -->
  <rect x="8" y="12" width="96" height="96" rx="20" fill="url(#bg)"/>
  <!-- Rocket (simplified) -->
  <g transform="translate(56, 60) rotate(-45) scale(0.45)">
    <path d="M0,-95 C12,-95 22,-70 22,-50 L-22,-50 C-22,-70 -12,-95 0,-95Z" fill="#f8fafc"/>
    <rect x="-22" y="-50" width="44" height="80" rx="2" fill="#f8fafc"/>
    <rect x="-22" y="-10" width="44" height="6" fill="#818cf8" opacity="0.7"/>
    <circle cx="0" cy="-28" r="11" fill="#312e81" stroke="#a5b4fc" stroke-width="2"/>
    <path d="M-22,10 L-42,50 L-22,36 Z" fill="#c7d2fe" opacity="0.85"/>
    <path d="M22,10 L42,50 L22,36 Z" fill="#c7d2fe" opacity="0.85"/>
    <path d="M-14,30 L-18,42 L18,42 L14,30 Z" fill="#94a3b8"/>
    <ellipse cx="0" cy="56" rx="14" ry="28" fill="url(#flame)" opacity="0.9"/>
    <ellipse cx="0" cy="52" rx="8" ry="18" fill="#fef3c7" opacity="0.95"/>
  </g>
  <!-- Stars -->
  <circle cx="30" cy="28" r="2" fill="#e0e7ff" opacity="0.5"/>
  <circle cx="82" cy="22" r="1.5" fill="#e0e7ff" opacity="0.4"/>
  <circle cx="22" cy="88" r="1.5" fill="#e0e7ff" opacity="0.35"/>
  <!-- Wordmark -->
  <text x="120" y="56" font-family="system-ui,-apple-system,BlinkMacSystemFont,'Segoe UI',Roboto,sans-serif" font-size="38" font-weight="700" fill="#4338ca">Release</text>
  <text x="262" y="56" font-family="system-ui,-apple-system,BlinkMacSystemFont,'Segoe UI',Roboto,sans-serif" font-size="38" font-weight="700" fill="#6366f1">Pilot</text>
  <!-- Tagline -->
  <text x="120" y="82" font-family="system-ui,-apple-system,BlinkMacSystemFont,'Segoe UI',Roboto,sans-serif" font-size="14" font-weight="400" fill="#9ca3af" letter-spacing="0.5">Changelog &amp; Release Notes Generator</text>
  </g>
</svg>
